<?xml version="1.0" standalone="no"?>
<!DOCTYPE svg PUBLIC "-//W3C//DTD SVG 20010904//EN"
 "http://www.w3.org/TR/2001/REC-SVG-20010904/DTD/svg10.dtd">
<svg version="1.0" xmlns="http://www.w3.org/2000/svg"
 width="50.000000pt" height="50.000000pt" viewBox="0 0 1024.000000 1024.000000"
 preserveAspectRatio="xMidYMid meet">
<metadata>
Created by potrace 1.16, written by Peter Selinger 2001-2019
</metadata>
<g transform="translate(0.000000,1024.000000) scale(0.100000,-0.100000)"
fill="#000000" stroke="none">
<path d="M5075 8638 c-54 -42 -55 -51 -55 -513 0 -450 2 -467 47 -508 50 -44
146 -26 183 35 19 32 20 49 20 478 0 423 -1 446 -19 474 -11 16 -30 35 -43 42
-37 21 -101 17 -133 -8z"/>
<path d="M4252 8229 c-106 -53 -124 -205 -33 -282 47 -39 99 -52 147 -37 56
18 92 46 114 90 42 82 10 185 -70 227 -54 29 -102 29 -158 2z"/>
<path d="M5904 8239 c-42 -12 -90 -68 -105 -121 -14 -55 1 -106 46 -157 60
-66 138 -73 221 -22 34 21 74 92 74 133 0 120 -116 202 -236 167z"/>
<path d="M3264 8000 c-11 -4 -33 -22 -47 -40 -21 -25 -27 -42 -27 -82 0 -59
-17 -41 355 -394 339 -323 316 -304 374 -304 59 0 103 31 121 85 23 69 10 89
-150 239 -47 44 -179 170 -294 280 -114 111 -218 206 -230 213 -24 14 -72 16
-102 3z"/>
<path d="M6905 7991 c-16 -11 -171 -158 -343 -328 l-313 -308 1 -43 c0 -84 46
-132 125 -132 54 0 25 -25 442 378 302 292 302 292 265 374 -31 72 -114 99
-177 59z"/>
<path d="M4980 7413 c-240 -36 -309 -52 -441 -99 -118 -42 -246 -107 -359
-181 -597 -396 -905 -1116 -760 -1780 l19 -86 -76 -84 -76 -83 -56 0 c-202 0
-405 -81 -554 -220 -185 -174 -270 -355 -283 -605 -7 -131 9 -232 55 -350 43
-113 100 -196 206 -301 79 -79 105 -98 195 -143 187 -91 -39 -83 2286 -83
1911 0 2065 1 2130 17 310 77 554 338 620 665 21 108 15 292 -15 395 -76 267
-265 490 -513 604 -135 62 -201 76 -370 76 -82 0 -148 4 -148 8 0 5 9 43 19
85 102 404 60 812 -124 1187 -264 540 -791 908 -1397 974 -92 10 -303 13 -358
4z m295 -244 c146 -13 229 -29 361 -74 448 -150 811 -515 962 -970 49 -147 66
-261 66 -440 0 -139 -14 -290 -31 -318 -3 -5 -24 9 -47 31 -72 69 -192 140
-284 167 -34 11 -60 30 -112 88 -204 221 -524 339 -832 308 -270 -27 -488
-131 -678 -321 -69 -68 -197 -238 -212 -280 -2 -5 -43 11 -93 36 -115 56 -184
74 -315 81 -119 6 -233 -11 -332 -51 -66 -27 -60 -33 -79 79 -16 99 -14 302 5
420 75 459 401 892 831 1100 199 97 357 134 650 153 11 1 74 -3 140 -9z m378
-1473 c81 -22 149 -53 202 -91 l46 -32 -83 -26 c-113 -36 -197 -88 -279 -174
-99 -104 -113 -171 -49 -234 23 -24 37 -29 74 -29 42 0 51 5 121 69 125 114
238 161 387 161 99 0 168 -15 243 -52 133 -67 219 -155 293 -304 54 -108 70
-115 196 -88 141 29 269 25 379 -13 117 -41 187 -84 272 -168 176 -172 241
-428 170 -670 -47 -162 -210 -324 -385 -382 -52 -17 -149 -18 -2045 -21 -1430
-2 -2013 0 -2070 8 -119 17 -209 64 -304 159 -52 51 -89 99 -114 147 -20 40
-37 76 -37 80 0 5 75 8 167 6 194 -3 238 7 273 62 36 59 23 122 -35 168 -28
22 -37 23 -233 26 l-203 3 7 47 c17 118 83 241 181 337 65 64 118 98 212 134
60 23 80 25 226 26 88 0 166 4 172 8 7 5 31 39 53 77 83 142 219 245 375 285
76 19 224 19 299 0 77 -20 184 -77 243 -128 44 -40 103 -112 103 -128 0 -4
-21 -1 -47 7 -123 37 -305 24 -426 -30 -66 -30 -148 -91 -176 -131 -45 -66
-18 -153 55 -181 51 -19 68 -15 161 43 144 88 297 93 459 13 134 -66 235 -198
251 -329 l6 -51 -463 0 c-511 0 -512 0 -551 -64 -37 -61 -12 -147 51 -178 32
-16 79 -18 538 -18 546 0 541 -1 594 56 51 55 70 116 70 223 -1 158 -49 284
-155 410 -48 56 -54 69 -64 135 -15 92 -53 189 -104 261 -21 31 -39 60 -39 66
0 5 10 29 21 52 70 138 205 282 335 359 83 49 196 91 286 107 74 14 272 6 341
-13z"/>
<path d="M5932 4285 c-66 -29 -86 -140 -35 -197 38 -42 65 -48 218 -48 117 0
154 3 182 17 95 45 97 175 3 223 -34 17 -58 20 -187 20 -106 -1 -157 -5 -181
-15z"/>
<path d="M6623 4285 c-63 -27 -86 -97 -55 -168 34 -77 32 -77 422 -77 375 0
389 2 430 60 45 64 23 145 -51 182 -30 16 -70 18 -374 18 -267 -1 -347 -4
-372 -15z"/>
<path d="M2975 7231 c-46 -28 -72 -62 -84 -108 -29 -106 54 -213 164 -213 106
0 191 101 171 203 -10 47 -50 102 -89 120 -47 23 -124 22 -162 -2z"/>
<path d="M7170 7243 c-70 -26 -114 -100 -108 -178 5 -64 35 -108 91 -136 80
-41 194 -4 232 76 38 83 -2 198 -81 231 -33 14 -105 18 -134 7z"/>
<path d="M2400 6610 c-19 -5 -47 -22 -62 -39 -23 -26 -28 -41 -28 -82 0 -45 4
-55 34 -85 l34 -34 445 0 444 0 34 23 c84 56 64 179 -34 216 -34 13 -813 13
-867 1z"/>
<path d="M7017 6605 c-21 -7 -40 -15 -41 -17 -28 -36 -36 -60 -36 -101 0 -42
5 -54 34 -83 l34 -34 436 0 c470 0 474 0 510 52 9 13 16 43 16 69 0 59 -31
100 -88 117 -60 18 -814 16 -865 -3z"/>
<path d="M2735 5937 c-47 -26 -85 -92 -85 -147 0 -49 38 -120 79 -147 41 -28
117 -31 168 -7 84 41 119 156 71 239 -47 80 -151 108 -233 62z"/>
<path d="M7394 5946 c-53 -24 -88 -79 -92 -150 -3 -51 0 -66 20 -96 36 -53 83
-80 140 -80 56 0 91 16 129 57 38 40 49 66 49 111 0 121 -134 207 -246 158z"/>
<path d="M3707 3203 c-26 -40 -305 -540 -350 -629 -14 -28 -33 -78 -41 -111
-66 -253 100 -498 367 -543 297 -51 572 212 527 501 -14 91 -39 146 -210 450
-212 377 -207 369 -239 369 -21 0 -35 -9 -54 -37z"/>
<path d="M6502 3213 c-10 -16 -35 -57 -54 -93 -20 -36 -87 -157 -150 -270
-154 -274 -176 -318 -194 -397 -46 -197 51 -395 238 -488 120 -59 233 -66 357
-24 153 53 270 185 303 341 16 78 0 186 -41 275 -43 91 -351 639 -374 664 -26
28 -62 24 -85 -8z m243 -685 c76 -35 83 -196 12 -291 -19 -25 -54 -53 -87 -70
-47 -24 -64 -28 -119 -25 -52 3 -67 8 -82 27 -20 25 -24 57 -10 80 6 9 36 18
72 22 56 6 68 12 96 43 31 34 33 40 33 111 0 62 4 79 20 95 23 23 30 24 65 8z"/>
<path d="M5133 3000 c-12 -5 -39 -39 -61 -77 -88 -154 -329 -602 -350 -649
-97 -230 -4 -478 222 -589 72 -36 87 -40 177 -43 79 -4 111 0 166 16 224 69
360 280 323 503 -10 59 -28 105 -90 224 -137 265 -325 598 -346 611 -12 8 -27
9 -41 4z"/>
</g>
</svg>
